<svg width="29" height="29" viewBox="0 0 29 29" fill="none" xmlns="http://www.w3.org/2000/svg">
<path d="M13.9193 0.157538C13.8243 0.235785 13.6454 0.492882 13.5225 0.727623C13.2989 1.1468 13.271 1.16916 12.8574 1.39272C12.3376 1.67776 12.1811 1.83426 12.1476 2.1193C12.1029 2.44906 12.2594 2.63908 12.8183 2.94648C13.2822 3.19799 13.2933 3.20917 13.5393 3.66188C13.8243 4.18726 13.9976 4.34375 14.305 4.34375C14.6124 4.34375 14.78 4.19285 15.0818 3.65629C15.3333 3.20358 15.3501 3.18122 15.7861 2.95207C16.3282 2.66144 16.5071 2.43788 16.4679 2.11371C16.4288 1.83426 16.2555 1.661 15.7358 1.38154C15.3389 1.16916 15.311 1.14121 15.0818 0.716445C14.7074 0.0345783 14.2994 -0.166628 13.9193 0.157538ZM14.4894 1.37595C14.6794 1.73366 14.7465 1.80072 15.1377 2.01311L15.4284 2.17519L15.0707 2.38758C14.7689 2.56084 14.6738 2.65585 14.5229 2.92413C14.4223 3.10857 14.3217 3.25388 14.305 3.25388C14.2882 3.25388 14.1876 3.10857 14.087 2.92413C13.9361 2.65585 13.8411 2.56084 13.5393 2.38758L13.1816 2.17519L13.4722 2.01311C13.8634 1.80072 13.9305 1.73366 14.1205 1.37595C14.2044 1.20828 14.2882 1.07414 14.305 1.07414C14.3217 1.07414 14.4056 1.20828 14.4894 1.37595Z" fill="#FBFEFF"/>
<path d="M7.93903 5.26813C7.07272 5.35196 6.31261 5.49728 6.16729 5.60906C5.99403 5.74879 5.98285 6.0506 6.15053 6.21827C6.28466 6.35241 6.36291 6.34682 7.34659 6.18474C7.62604 6.14002 8.20171 6.08972 8.63766 6.06737C10.3703 5.98353 11.9408 6.34123 13.394 7.15723L13.8579 7.41433V14.9204C13.8579 19.0508 13.8411 22.421 13.8187 22.4098C13.7908 22.3986 13.5225 22.2701 13.2151 22.1192C12.4997 21.7726 11.6725 21.5044 10.8509 21.3479C10.0741 21.2026 8.40292 21.1746 7.57015 21.292C6.32938 21.4708 4.99918 21.8006 3.42306 22.3316L2.51204 22.639V15.2278C2.51204 6.97279 2.47851 7.62672 2.89769 7.39756C3.00947 7.33608 3.43983 7.18518 3.85342 7.05663C4.90975 6.73246 5.07742 6.6654 5.1389 6.54802C5.28422 6.27975 5.08301 5.93323 4.78679 5.93323C4.68619 5.93323 4.13846 6.08413 3.56279 6.26857C2.33878 6.6654 2.13199 6.78835 1.85812 7.32491C1.67927 7.66584 1.67368 7.69378 1.67368 8.37006C1.67368 8.98486 1.6625 9.06869 1.57308 9.09664C1.15949 9.23637 0.740308 9.48787 0.472033 9.75056C-0.0477506 10.2703 -0.00862716 9.48787 0.00814004 19.0172L0.0249072 27.3673L0.175812 27.6523C0.483211 28.228 1.04771 28.5857 1.67368 28.5913C1.98667 28.5913 2.24936 28.5242 3.62986 28.0548C5.31775 27.4791 6.52499 27.1437 7.62604 26.9369C8.59854 26.7581 10.0964 26.7581 10.8118 26.9369C11.5049 27.1102 12.1252 27.4288 12.6283 27.8759C13.1369 28.3286 13.4554 28.4907 13.964 28.5801C14.2659 28.6304 14.4335 28.6304 14.7297 28.5745C15.2048 28.4907 15.4116 28.3845 15.9146 27.9597C16.8871 27.1437 17.949 26.8475 19.6649 26.909C20.2126 26.9314 20.8442 26.9928 21.2075 27.0599C22.247 27.2499 22.3085 27.2555 22.4538 27.1214C22.6103 26.9649 22.6215 26.6687 22.465 26.5289C22.1912 26.283 20.112 26.0147 18.8936 26.0706C17.3846 26.1377 16.3506 26.5066 15.3781 27.317C14.5844 27.9765 14.0143 27.9597 13.176 27.2332C11.611 25.8806 9.33071 25.6291 6.07787 26.4507C5.20597 26.6687 4.34526 26.9314 2.92004 27.4064C1.61779 27.8424 1.49483 27.8536 1.16508 27.5797C0.812966 27.2835 0.835322 27.82 0.835322 18.9055C0.835322 13.2605 0.852089 10.7007 0.896802 10.5889C0.975049 10.3765 1.1539 10.1921 1.40541 10.0635C1.52278 10.0077 1.62897 9.95736 1.64574 9.95736C1.6625 9.95736 1.67368 13.294 1.67368 17.3741V24.7963L1.80782 25.0758C2.04256 25.59 2.65736 25.998 3.18832 25.998C3.3001 25.998 3.76958 25.8862 4.2223 25.7465C8.28555 24.5057 10.6609 24.5336 13.2095 25.8471C13.8523 26.1824 13.8914 26.1936 14.2994 26.1936C14.713 26.1936 14.7465 26.1824 15.5346 25.7912C16.4456 25.3441 16.9933 25.1484 17.8037 24.992C19.5922 24.6454 21.5037 24.8634 24.3877 25.7465C24.8404 25.8862 25.3099 25.998 25.4216 25.998C25.9526 25.998 26.5674 25.59 26.8021 25.0758L26.9363 24.7963V17.3741C26.9363 13.294 26.9474 9.95736 26.9642 9.95736C26.981 9.95736 27.0872 10.0077 27.2045 10.0635C27.4561 10.1921 27.6349 10.3765 27.7132 10.5889C27.7579 10.7007 27.7746 13.2605 27.7746 18.9055C27.7746 27.82 27.797 27.2835 27.4449 27.5797C27.1095 27.8591 27.0145 27.848 25.3825 27.317C24.5609 27.0543 23.8455 26.8363 23.7896 26.8363C23.6443 26.8363 23.4152 27.0879 23.4152 27.2388C23.4152 27.535 23.5269 27.5909 25.0751 28.0995C26.3438 28.5131 26.6289 28.5913 26.9363 28.5913C27.5622 28.5857 28.1267 28.2336 28.4341 27.6523L28.585 27.3673L28.6018 19.0116C28.6186 9.78968 28.6409 10.3989 28.2665 9.86234C28.0653 9.56612 27.7858 9.3705 27.3163 9.20283L26.9642 9.07428L26.9363 8.33094C26.9083 7.6323 26.8971 7.55965 26.7407 7.28019C26.478 6.81071 26.2153 6.64863 25.1254 6.29093C21.3807 5.07251 18.8992 4.89925 16.4903 5.68731C15.8755 5.88851 15.026 6.26857 14.5733 6.54802L14.305 6.7157L14.0367 6.54802C13.6063 6.28534 12.7624 5.89969 12.1979 5.70966C10.9012 5.27931 9.42013 5.12281 7.93903 5.26813ZM21.459 6.21268C21.8446 6.27975 22.4594 6.4083 22.8283 6.49772C23.7673 6.73246 25.4719 7.26343 25.7123 7.39756C26.1314 7.6323 26.0979 6.97279 26.0979 15.2278V22.6334L25.3602 22.3874C20.9336 20.8896 18.072 20.8169 15.3893 22.1248C15.0819 22.2701 14.8192 22.3986 14.7968 22.4098C14.7689 22.421 14.7521 19.0508 14.7521 14.9204V7.40874L15.188 7.16841C16.1885 6.60392 17.1889 6.29093 18.6365 6.07854C19.0613 6.01706 20.7883 6.1009 21.459 6.21268ZM10.1244 22.0912C11.2757 22.2142 12.4047 22.5887 13.4163 23.1811C13.7069 23.3488 14.0255 23.5276 14.1261 23.5835C14.3385 23.6897 14.2826 23.7121 15.2775 23.1308C16.9877 22.1359 19.0277 21.8229 21.3416 22.1974C22.2694 22.3483 23.7449 22.734 25.008 23.1587L26.07 23.5108L26.0867 24.1089L26.1035 24.7069L25.9302 24.9025C25.6508 25.2211 25.5111 25.2155 24.4324 24.8858C23.9182 24.7293 23.186 24.5281 22.8004 24.433C19.6537 23.6841 17.2448 23.9021 14.9198 25.154C14.6794 25.2826 14.4223 25.3832 14.3162 25.3832C14.2044 25.3832 13.9026 25.2658 13.5337 25.0814C12.4662 24.5392 11.734 24.2933 10.7056 24.1256C8.84446 23.8238 6.95535 24.0418 4.17758 24.8913C3.09889 25.2155 2.95917 25.2155 2.67971 24.9025L2.50645 24.7069L2.52322 24.1089L2.53999 23.5108L3.6578 23.1364C5.32334 22.5831 7.19568 22.1471 8.26878 22.0689C8.85005 22.0242 9.5878 22.0353 10.1244 22.0912Z" fill="#FBFEFF"/>
<path d="M20.0617 8.69247C19.9834 8.73718 19.827 8.94956 19.704 9.1843C19.419 9.72086 19.391 9.7488 18.8712 10.0283C18.385 10.2854 18.2732 10.4307 18.2732 10.7828C18.2732 11.0846 18.4185 11.2467 18.9495 11.5317C19.3854 11.7609 19.4022 11.7776 19.6481 12.2303C19.9667 12.8172 20.112 12.9346 20.4697 12.901C20.805 12.8731 20.8833 12.7948 21.1851 12.2415C21.4142 11.8112 21.4422 11.7832 21.8446 11.5597C22.437 11.2355 22.5768 11.0902 22.5768 10.7772C22.5768 10.4418 22.4259 10.2686 21.8837 9.98354C21.4646 9.76557 21.4478 9.7488 21.2019 9.30168C21.0621 9.04458 20.8833 8.78748 20.805 8.726C20.6374 8.59745 20.2741 8.58069 20.0617 8.69247ZM20.833 10.3021C20.8777 10.358 21.051 10.4754 21.213 10.5704C21.3807 10.6654 21.5149 10.7492 21.5149 10.7604C21.5149 10.7772 21.3639 10.8666 21.1739 10.9672C20.9056 11.1125 20.805 11.2075 20.6765 11.4311C20.5871 11.5876 20.4921 11.7497 20.4641 11.7944C20.4306 11.8559 20.3747 11.8 20.2405 11.5708C20.0337 11.202 19.9499 11.1237 19.5699 10.9169L19.2792 10.7548L19.5699 10.5983C19.9723 10.386 20.0393 10.3189 20.2405 9.94442L20.4138 9.62025L20.5815 9.91088C20.6709 10.073 20.7827 10.2518 20.833 10.3021Z" fill="#FBFEFF"/>
<path d="M18.3571 14.79C17.5299 14.9297 16.4792 15.2707 16.25 15.4775C16.1159 15.6004 16.1159 15.9525 16.25 16.0699C16.3786 16.1873 16.658 16.1929 16.8648 16.0867C16.9487 16.0476 17.2169 15.947 17.4628 15.8631C19.0501 15.3489 20.8275 15.4607 23.4431 16.2488C23.9238 16.3941 24.3262 16.4835 24.3933 16.4667C24.7119 16.3661 24.8125 16.0028 24.5777 15.7905C24.3653 15.6004 22.5657 15.0862 21.3472 14.8739C20.5257 14.7229 18.9942 14.6838 18.3571 14.79Z" fill="#FBFEFF"/>
<path d="M18.5806 16.7779C17.692 16.9009 16.4791 17.281 16.2556 17.5045C16.0935 17.6666 16.1158 17.9684 16.2947 18.1081C16.4847 18.259 16.5015 18.259 16.9933 18.0578C17.5802 17.8119 18.1503 17.6778 18.8992 17.5995C20.0114 17.4878 21.4534 17.6834 23.1245 18.1808C24.3429 18.5441 24.3429 18.5441 24.5218 18.41C24.7118 18.2702 24.7509 17.9852 24.6112 17.8287C24.438 17.6387 22.5489 17.1021 21.2913 16.8897C20.4865 16.75 19.1619 16.6941 18.5806 16.7779Z" fill="#FBFEFF"/>
<path d="M18.7706 18.7964C17.9043 18.8747 16.535 19.2771 16.2556 19.5342C16.1047 19.6739 16.1158 19.9813 16.2723 20.1322C16.4344 20.2775 16.5686 20.2719 16.9654 20.0987C17.8261 19.7186 19.0222 19.5454 20.1456 19.6292C21.2019 19.713 21.9396 19.8583 23.3425 20.2719C23.8064 20.4117 24.2479 20.5234 24.3206 20.5234C24.5106 20.5234 24.7006 20.3278 24.7006 20.1378C24.7006 19.8695 24.5497 19.7633 23.8623 19.5509C21.8223 18.925 20.1344 18.6735 18.7706 18.7964Z" fill="#FBFEFF"/>
<path d="M8.21277 7.47493C6.68695 7.66496 4.23894 8.28534 4.0042 8.54803C3.85329 8.71011 3.88124 8.97839 4.06009 9.11811C4.24453 9.26343 4.23894 9.26343 5.36234 8.93367C8.07863 8.14003 9.77771 8.08414 11.4991 8.72688C12.0748 8.94485 12.1754 8.95044 12.3654 8.79395C12.494 8.68217 12.494 8.32447 12.3599 8.2071C12.1978 8.06178 11.2923 7.73761 10.6943 7.60907C10.1578 7.49728 8.69343 7.41904 8.21277 7.47493Z" fill="#FBFEFF"/>
<path d="M8.10107 9.51362C6.89942 9.63658 4.1999 10.3352 4.00987 10.57C3.87015 10.7432 3.88133 10.9724 4.04341 11.1233C4.21667 11.2854 4.28933 11.2798 5.44068 10.9388C8.12343 10.1508 9.89516 10.1117 11.5942 10.7879C12.1028 10.9947 12.1252 10.9947 12.3152 10.8438C12.4941 10.7041 12.5164 10.4023 12.3544 10.2402C12.2146 10.1005 11.4545 9.80984 10.8788 9.6757C9.98459 9.46891 9.08475 9.41302 8.10107 9.51362Z" fill="#FBFEFF"/>
<path d="M7.98944 11.5531C7.94472 11.5643 7.64291 11.6146 7.31875 11.6649C6.19534 11.8438 4.20564 12.4027 4.01561 12.5927C3.78087 12.8275 3.96531 13.2578 4.30065 13.2578C4.39567 13.2578 4.75895 13.1684 5.11107 13.0622C6.95546 12.5033 7.93913 12.3412 9.27492 12.3803C10.3368 12.4083 10.8119 12.4977 11.5776 12.8163C11.7956 12.9057 12.0303 12.9784 12.103 12.9784C12.3154 12.9784 12.4719 12.7827 12.4495 12.5424C12.4272 12.2909 12.2539 12.1624 11.6 11.9276C10.7896 11.6314 10.4095 11.5699 9.19109 11.5531C8.57629 11.542 8.03415 11.542 7.98944 11.5531Z" fill="#FBFEFF"/>
<path d="M7.95584 14.9855C7.79376 15.047 7.60373 15.2929 7.37458 15.7288C7.19014 16.0753 7.15102 16.1145 6.74301 16.338C6.21205 16.6231 6.0332 16.8131 6.0332 17.0981C6.0332 17.4167 6.18411 17.5956 6.6983 17.8806C7.15661 18.1377 7.17337 18.1545 7.43606 18.6184C7.71551 19.1214 7.90554 19.2891 8.18499 19.2891C8.48122 19.2891 8.68242 19.1102 8.95629 18.6072C9.20779 18.1433 9.22456 18.1321 9.6661 17.8918C9.91761 17.7577 10.1691 17.5844 10.2306 17.5117C10.3591 17.3441 10.3703 16.9081 10.2474 16.746C10.2026 16.6846 9.95114 16.5057 9.68286 16.3548C9.21338 16.0809 9.19662 16.0642 8.93952 15.6003C8.61535 15.0022 8.3359 14.829 7.95584 14.9855ZM8.45327 16.433C8.593 16.6734 8.69919 16.774 8.9507 16.9081C9.12955 17.0031 9.27486 17.0981 9.27486 17.1205C9.27486 17.1429 9.12396 17.2379 8.93952 17.3385C8.6433 17.495 8.57064 17.5676 8.39738 17.8806C8.24647 18.1545 8.17941 18.2271 8.14587 18.1657C8.11793 18.1209 8.02291 17.9589 7.93349 17.8024C7.80494 17.5732 7.69875 17.4726 7.41929 17.3161L7.06718 17.1205L7.25721 17.0143C7.68198 16.7852 7.80494 16.6678 7.98938 16.338C8.11793 16.1145 8.20176 16.0195 8.22971 16.0642C8.25206 16.0977 8.35267 16.2654 8.45327 16.433Z" fill="#FBFEFF"/>
</svg>
