<svg width="34" height="34" viewBox="0 0 34 34" fill="none" xmlns="http://www.w3.org/2000/svg">
<path d="M2.89634 33.1221C1.54604 32.7625 0.491378 31.6839 0.131833 30.3176C-0.0439444 29.6385 -0.0439444 21.5208 0.131833 20.8416C0.491378 19.4594 1.55403 18.3887 2.9283 18.0292C3.63141 17.8534 11.7332 17.8534 12.4363 18.0292C13.8105 18.3887 14.8732 19.4594 15.2327 20.8416C15.4085 21.5208 15.4085 29.6385 15.2327 30.3176C14.8732 31.6999 13.8105 32.7705 12.4363 33.1301C11.7571 33.3058 3.55151 33.2979 2.89634 33.1221ZM12.2046 30.4854C12.3244 30.3975 12.5002 30.2217 12.5881 30.1019C12.7559 29.8862 12.7559 29.7983 12.7559 25.5796C12.7559 21.361 12.7559 21.2731 12.5881 21.0573C12.5002 20.9375 12.3244 20.7617 12.2046 20.6738C11.9888 20.506 11.9009 20.506 7.68228 20.506C3.46362 20.506 3.37573 20.506 3.16 20.6738C3.04015 20.7617 2.86438 20.9375 2.77649 21.0573C2.61669 21.2731 2.6087 21.3769 2.58473 25.3639C2.56875 27.617 2.58473 29.5666 2.6087 29.7104C2.66463 30.03 3.0002 30.4375 3.32779 30.5813C3.51955 30.6692 4.39844 30.6852 7.77816 30.6692C11.885 30.6532 11.9888 30.6532 12.2046 30.4854Z" fill="#2E6BFF"/>
<path d="M20.7938 33.1221C19.4435 32.7625 18.3888 31.6839 18.0293 30.3176C17.8535 29.6385 17.8535 21.5208 18.0293 20.8416C18.3888 19.4594 19.4515 18.3887 20.8258 18.0292C21.5289 17.8534 29.6306 17.8534 30.3337 18.0292C31.708 18.3887 32.7706 19.4594 33.1302 20.8416C33.306 21.5208 33.306 29.6385 33.1302 30.3176C32.7706 31.6999 31.708 32.7705 30.3337 33.1301C29.6546 33.3058 21.449 33.2979 20.7938 33.1221ZM30.102 30.4854C30.2219 30.3975 30.3976 30.2217 30.4855 30.1019C30.6533 29.8862 30.6533 29.7983 30.6533 25.5796C30.6533 21.361 30.6533 21.2731 30.4855 21.0573C30.3976 20.9375 30.2219 20.7617 30.102 20.6738C29.8863 20.506 29.7984 20.506 25.5797 20.506C21.3611 20.506 21.2732 20.506 21.0575 20.6738C20.9376 20.7617 20.7618 20.9375 20.6739 21.0573C20.5142 21.2731 20.5062 21.3769 20.4822 25.3639C20.4662 27.617 20.4822 29.5666 20.5062 29.7104C20.5621 30.03 20.8977 30.4375 21.2253 30.5813C21.417 30.6692 22.2959 30.6852 25.6756 30.6692C29.7824 30.6532 29.8863 30.6532 30.102 30.4854Z" fill="#2E6BFF"/>
<path d="M2.89634 15.2247C1.54604 14.8652 0.491378 13.7866 0.131833 12.4203C-0.0439444 11.7411 -0.0439444 3.62342 0.131833 2.94427C0.491378 1.56202 1.55403 0.491378 2.9283 0.131833C3.63141 -0.0439444 11.7332 -0.0439444 12.4363 0.131833C13.8105 0.491378 14.8732 1.56202 15.2327 2.94427C15.4085 3.62342 15.4085 11.7411 15.2327 12.4203C14.8732 13.8025 13.8105 14.8732 12.4363 15.2327C11.7571 15.4085 3.55151 15.4005 2.89634 15.2247ZM12.2046 12.5881C12.3244 12.5002 12.5002 12.3244 12.5881 12.2046C12.7559 11.9888 12.7559 11.9009 12.7559 7.68228C12.7559 3.46362 12.7559 3.37573 12.5881 3.16C12.5002 3.04015 12.3244 2.86438 12.2046 2.77649C11.9888 2.6087 11.9009 2.6087 7.68228 2.6087C3.46362 2.6087 3.37573 2.6087 3.16 2.77649C3.04015 2.86438 2.86438 3.04015 2.77649 3.16C2.61669 3.37573 2.6087 3.4796 2.58473 7.46655C2.56875 9.7197 2.58473 11.6692 2.6087 11.8131C2.66463 12.1326 3.0002 12.5401 3.32779 12.684C3.51955 12.7718 4.39844 12.7878 7.77816 12.7718C11.885 12.7559 11.9888 12.7559 12.2046 12.5881Z" fill="#2E6BFF"/>
<path d="M25.0602 15.2407C24.7646 15.1048 24.5009 14.8252 24.3891 14.5296C24.3331 14.3857 24.3012 13.3311 24.3012 11.6372V8.9686L21.5127 8.94463C18.8361 8.92066 18.7083 8.91267 18.5005 8.75287C18.0771 8.44127 17.9492 8.18559 17.9492 7.68223C17.9492 7.17886 18.0771 6.92319 18.5005 6.61158C18.7083 6.45178 18.8361 6.44379 21.5047 6.41982L24.2932 6.39585L24.3172 3.60738C24.3411 0.938758 24.3491 0.81092 24.5089 0.603182C24.8205 0.179718 25.0762 0.0518799 25.5796 0.0518799C26.0829 0.0518799 26.3386 0.179718 26.6502 0.603182C26.81 0.81092 26.818 0.938758 26.842 3.60738L26.8659 6.39585L29.6544 6.41982C32.323 6.44379 32.4509 6.45178 32.6586 6.61158C33.0821 6.92319 33.2099 7.17886 33.2099 7.68223C33.2099 8.18559 33.0821 8.44127 32.6586 8.75287C32.4509 8.91267 32.323 8.92066 29.6544 8.94463L26.8659 8.9686L26.842 11.7571C26.818 14.4257 26.81 14.5535 26.6502 14.7613C26.5623 14.8811 26.3945 15.0569 26.2827 15.1368C26.011 15.3365 25.3798 15.3925 25.0602 15.2407Z" fill="#2E6BFF"/>
</svg>
