<svg width="40" height="32" viewBox="0 0 40 32" fill="none" xmlns="http://www.w3.org/2000/svg">
<path d="M39.8086 0.848236L40 1.03196V16.2277C40 24.5796 39.977 31.477 39.9541 31.5459C39.8086 31.9057 40.7885 31.8904 20.4025 31.8904C0.0164566 31.8904 0.996334 31.9057 0.850883 31.5459C0.827915 31.477 0.804951 24.5796 0.804951 16.2277V1.03196L0.996334 0.848236L1.18006 0.656855H20.4025H39.6249L39.8086 0.848236ZM1.95324 3.06827V4.33139H15.993H30.0252L30.2319 4.49215C30.4845 4.69119 30.4998 5.05099 30.2625 5.30361L30.1017 5.47968H16.0237H1.95324V18.1109V30.7421H20.4025H38.8517V18.1109V5.47968H35.6824C33.937 5.47968 32.4519 5.45672 32.383 5.43375C32.3218 5.40313 32.2146 5.2883 32.1533 5.17347C32.0079 4.89788 32.1227 4.53808 32.3906 4.4156C32.5208 4.35436 33.5389 4.33139 35.713 4.33139H38.8517V3.06827V1.80515H20.4025H1.95324V3.06827Z" fill="black"/>
<path d="M7.88597 2.68549C8.14625 2.93812 8.13859 3.27495 7.87831 3.48164C7.36541 3.88737 6.74533 3.38212 7.03623 2.80798C7.22761 2.44052 7.59507 2.38694 7.88597 2.68549Z" fill="black"/>
<path d="M6.04783 2.68547C6.30811 2.93809 6.30046 3.27492 6.04018 3.48162C5.76459 3.69596 5.50431 3.68065 5.26699 3.44334C5.11389 3.29023 5.08327 3.20603 5.12154 3.00699C5.21341 2.51705 5.711 2.34098 6.04783 2.68547Z" fill="black"/>
<path d="M4.21194 2.68555C4.31911 2.78506 4.40332 2.96114 4.40332 3.06831C4.40332 3.17548 4.31911 3.35156 4.21194 3.45107C4.11242 3.55825 3.93635 3.64246 3.82917 3.64246C3.722 3.64246 3.54593 3.55825 3.44641 3.45107C3.33924 3.35156 3.25503 3.17548 3.25503 3.06831C3.25503 2.96114 3.33924 2.78506 3.44641 2.68555C3.54593 2.57837 3.722 2.49416 3.82917 2.49416C3.93635 2.49416 4.11242 2.57837 4.21194 2.68555Z" fill="black"/>
<path d="M35.9885 8.09778C36.0803 8.13605 36.1952 8.25854 36.2411 8.35806C36.3636 8.63365 36.3636 27.5958 36.2334 27.8714C36.1799 27.9939 36.0497 28.0934 35.8736 28.147C35.6899 28.2005 33.1484 28.2159 28.1954 28.2005L20.7927 28.1776L20.6167 28.0015L20.4406 27.8254V18.1032V8.37337L20.6549 8.18964L20.8693 8.00591L28.3485 8.01357C33.3321 8.01357 35.8813 8.04419 35.9885 8.09778ZM21.6272 18.1109V27.0676H28.4021H35.177V18.1109V9.15421H28.4021H21.6272V18.1109Z" fill="black"/>
<path d="M18.1055 8.05952C18.1668 8.08248 18.2816 8.15138 18.3505 8.22028C18.4806 8.32745 18.4883 8.60304 18.4883 11.9637C18.4883 15.4851 18.4806 15.5923 18.3352 15.7378C18.1821 15.8909 18.0826 15.8909 11.4914 15.8909H4.79298L4.63987 15.6918C4.47911 15.4928 4.47911 15.4086 4.47911 12.0173C4.47911 9.6365 4.50208 8.48821 4.56332 8.36573C4.60925 8.25855 4.73174 8.13607 4.83891 8.09014C5.03029 8.00593 17.8682 7.97531 18.1055 8.05952ZM5.62741 11.9484V14.7426H11.4837H17.34V11.9484V9.15422H11.4837H5.62741V11.9484Z" fill="black"/>
<path d="M18.0672 17.8583C18.1514 17.8812 18.2816 17.9501 18.3505 18.019C18.4806 18.1262 18.4883 18.463 18.4883 23.0103C18.4883 27.8714 18.4883 27.8867 18.3275 28.0321C18.1744 28.1699 17.9371 28.1776 11.6827 28.2005C7.36516 28.2159 5.1145 28.2005 4.93077 28.147C4.7547 28.0934 4.62456 27.9939 4.57098 27.8714C4.50208 27.7259 4.47911 26.3862 4.47911 22.972V18.2716L4.66284 18.0573L4.84657 17.843L11.3842 17.8353C14.9745 17.8276 17.983 17.8353 18.0672 17.8583ZM5.64272 23.0256L5.62741 27.0676H11.4837H17.34V23.0103V18.953L11.499 18.9683L5.66568 18.9912L5.64272 23.0256Z" fill="black"/>
</svg>
