<svg width="36" height="36" viewBox="0 0 36 36" fill="none" xmlns="http://www.w3.org/2000/svg">
<path d="M9.13165 0.66024C7.78585 1.09034 6.85628 2.36676 6.85628 3.79581V4.25365L6.25275 4.29528C5.91283 4.31609 5.40643 4.40627 5.12201 4.48258C4.5046 4.65601 3.40854 5.16935 3.22124 5.37746C2.94376 5.6827 3.15881 6.21685 3.54729 6.21685C3.63053 6.21685 3.97739 6.07811 4.32424 5.90468C5.17057 5.48152 5.85734 5.31503 6.77997 5.31503C7.61936 5.31503 8.22982 5.42602 8.87497 5.69657C10.304 6.3001 11.4278 7.50021 11.9412 8.97782C12.1285 9.50503 12.1562 9.69927 12.184 10.4901C12.2117 11.2462 12.1909 11.496 12.066 11.9816C11.0602 16.0259 6.12095 17.4758 3.09637 14.6246C1.29967 12.925 0.883442 10.3236 2.06968 8.11068C2.26392 7.75689 2.41654 7.41697 2.41654 7.36841C2.41654 7.31985 2.35411 7.19498 2.27086 7.09093C2.1668 6.95912 2.06275 6.91056 1.88932 6.91056C1.57715 6.91056 1.42454 7.07705 1.04993 7.82626C0.494965 8.95007 0.266041 10.2126 0.404783 11.4058C0.758574 14.4165 3.07556 16.7404 6.0932 17.1081C6.4123 17.1428 6.71754 17.1775 6.7661 17.1775C6.83547 17.1775 6.85628 17.3301 6.85628 17.7324V18.2874H6.26663C4.72659 18.2874 3.20043 18.9187 2.01419 20.0494C-1.55841 23.4417 -0.170996 29.3798 4.53929 30.8643C5.07345 31.0308 6.40537 31.2251 6.68979 31.1765C6.81466 31.1557 6.82159 31.2251 6.86322 32.1269C6.89096 32.8622 6.93259 33.1952 7.04358 33.4935C7.39737 34.4508 8.23676 35.2347 9.20795 35.5191C9.54787 35.6163 10.5191 35.6301 17.914 35.6301C24.747 35.6301 26.3079 35.6093 26.5992 35.533C27.4941 35.2971 28.2503 34.6659 28.6873 33.7849L28.9509 33.2438L28.9717 32.2171C28.9856 31.6552 29.0134 31.1904 29.0272 31.1904C29.048 31.1904 29.3602 31.1557 29.7279 31.1141C32.0032 30.8643 33.8832 29.5185 34.8821 27.4374C35.34 26.4732 35.4579 25.9113 35.4579 24.7042C35.4579 23.5041 35.3469 22.9769 34.8891 21.9918C33.904 19.8968 31.8645 18.4747 29.6099 18.3013L29.0203 18.2527L28.9995 17.7255L28.9787 17.1913L29.4851 17.1428C32.3848 16.8722 34.6463 14.9437 35.3469 12.1411C35.5273 11.4266 35.5065 9.83108 35.3122 9.11656C34.5561 6.33478 32.1975 4.42708 29.2978 4.25365L29.0203 4.23978L28.9787 3.56688C28.944 2.97029 28.9093 2.83155 28.6804 2.36676C28.2503 1.49963 27.4941 0.861416 26.5992 0.625557C26.3079 0.549248 24.754 0.528435 17.8863 0.535374C9.97103 0.535374 9.50625 0.542309 9.13165 0.66024ZM26.7519 1.76324C27.4941 2.15865 27.9173 2.85236 27.9936 3.775L28.0352 4.3369L27.7647 4.38546C27.619 4.41321 27.3831 4.47564 27.2444 4.5242L26.9947 4.60745L26.96 4.12879C26.9114 3.51139 26.6617 3.08129 26.183 2.78299C25.8431 2.57488 25.8362 2.57488 24.6638 2.54713C23.6926 2.53326 23.4429 2.54713 23.1862 2.64425C22.8185 2.78299 22.5549 3.08129 22.4994 3.42814C22.4231 3.8513 22.4023 3.9068 22.215 3.98311C22.0901 4.04554 20.8761 4.06635 17.8932 4.06635C13.169 4.06635 13.4881 4.10798 13.3702 3.4767C13.2939 3.06741 12.9817 2.71362 12.6141 2.60956C12.2256 2.49857 10.4081 2.52632 10.0057 2.64425C9.36057 2.83155 8.93741 3.4212 8.93741 4.13573C8.93741 4.58664 8.93047 4.59357 8.52118 4.48952C8.38938 4.45483 8.1882 4.40627 8.07721 4.37852L7.88297 4.3369L7.91072 3.73337C7.9454 2.9911 8.13964 2.56794 8.65992 2.10316C9.28426 1.54125 8.56974 1.57594 18.025 1.58981L26.4536 1.60368L26.7519 1.76324ZM12.4129 3.85824C12.4892 4.32996 12.7667 4.69763 13.2176 4.92655C13.4257 5.03061 13.8974 5.03755 18.0111 5.02367L22.5757 5.00286L22.8255 4.82943C23.1376 4.62132 23.4151 4.2051 23.4706 3.8513L23.5192 3.58076H24.5528C25.5656 3.58076 25.6003 3.58769 25.7599 3.75418C25.9194 3.9068 25.9333 3.97617 25.9333 4.49645L25.9263 5.07223L25.5656 5.29422C25.0731 5.59251 24.3239 6.28622 23.9077 6.83425C23.4567 7.43084 22.992 8.3951 22.7977 9.13043C22.5827 9.96288 22.5827 11.4821 22.7977 12.2729C23.2209 13.8199 24.1643 15.1588 25.4546 16.0398L25.9333 16.3728V17.7047V19.0366L25.3991 19.4181C25.1008 19.6263 24.6291 20.0355 24.3516 20.3269C23.8938 20.8125 23.8452 20.8888 23.866 21.1108C23.8938 21.423 24.1713 21.6588 24.4279 21.5895C24.5181 21.5686 24.8303 21.312 25.1078 21.0206C26.2663 19.8344 27.4733 19.3141 29.0827 19.321C30.04 19.321 30.7199 19.4875 31.587 19.9384C32.0865 20.1951 32.3362 20.3824 32.8357 20.8888C34.0358 22.0889 34.5283 23.3584 34.4451 25.0164C34.2647 28.6029 30.6505 31.017 27.2583 29.8168C24.7887 28.9358 23.2903 26.4107 23.7204 23.8301C23.8313 23.1642 23.8244 23.0254 23.6649 22.852C23.5122 22.6855 23.1238 22.6924 22.9573 22.8589C22.6104 23.2058 22.5202 25.2592 22.8047 26.2997C23.207 27.8051 24.2198 29.2272 25.4616 30.0596L25.9333 30.3718V31.2944C25.9333 32.0991 25.9194 32.2379 25.8015 32.3766L25.6697 32.5431L18.0458 32.5639C12.5863 32.5778 10.3734 32.557 10.2416 32.5015C9.97103 32.3905 9.9086 32.12 9.9086 31.0794V30.1637L10.2416 29.9209C10.6578 29.6087 11.4833 28.7555 11.7747 28.3323C12.1146 27.8259 12.5239 26.9171 12.6904 26.2997C12.9124 25.4881 12.9124 23.9689 12.6973 23.1503C12.3088 21.7074 11.4764 20.4518 10.311 19.5569L9.9086 19.2516V17.8157V16.3728L10.3734 16.0675C11.6221 15.2489 12.5933 13.9032 13.0303 12.3839C13.2592 11.6139 13.2939 10.2751 13.1135 9.40792C12.7736 7.76382 11.7816 6.28622 10.3942 5.34972L9.9086 5.03061V4.55195C9.9086 4.01779 9.99184 3.76806 10.2138 3.664C10.2971 3.61544 10.7757 3.59463 11.3654 3.60157L12.3713 3.61544L12.4129 3.85824ZM30.2551 5.42602C32.8079 6.0018 34.5838 8.35348 34.4451 11.0034C34.341 12.9875 33.1964 14.7079 31.3789 15.5889C30.595 15.9635 30.0123 16.0953 29.055 16.0953C28.0977 16.0953 27.5149 15.9635 26.7311 15.5889C24.1088 14.3194 22.9573 11.2809 24.0672 8.59628C24.7054 7.07705 26.1483 5.84225 27.7716 5.44683C28.4098 5.28728 29.5961 5.28034 30.2551 5.42602ZM8.93741 17.7671C8.93741 18.3706 8.90966 18.7036 8.86804 18.7036C8.82641 18.7036 8.59055 18.6412 8.34775 18.5579L7.89684 18.4123V17.7394V17.0595L8.33388 16.9555C8.56974 16.893 8.8056 16.8445 8.85416 16.8375C8.9166 16.8306 8.93741 17.0595 8.93741 17.7671ZM27.6676 17.004L27.9797 17.0803L28.0005 17.7047L28.0213 18.336L27.6537 18.4192C27.4525 18.4608 27.2166 18.5163 27.1334 18.5371C26.9738 18.5788 26.9738 18.5788 26.9738 17.7047V16.8306L27.1681 16.8792C27.2721 16.9 27.4941 16.9624 27.6676 17.004ZM7.79279 19.4736C10.1445 20.0633 11.851 22.2762 11.851 24.7389C11.851 28.4364 8.21595 31.0308 4.69884 29.8377C2.60384 29.1231 1.16093 27.2154 1.04993 25.0164C0.966687 23.3584 1.45922 22.0889 2.65934 20.8888C3.15881 20.3824 3.40854 20.1951 3.90801 19.9384C4.65722 19.5569 5.18444 19.3973 5.88509 19.3349C6.60654 19.2725 7.14764 19.3141 7.79279 19.4736ZM8.93741 31.5719C8.93741 32.5431 9.00678 32.772 9.42994 33.1883C9.88779 33.6392 9.56175 33.6253 18.1082 33.6045L25.8431 33.5837L26.183 33.3756C26.3911 33.2438 26.5992 33.0357 26.7311 32.8275C26.9253 32.5084 26.9392 32.4321 26.9669 31.6621C26.9808 31.2112 27.0085 30.8435 27.0363 30.8435C27.0571 30.8505 27.2791 30.906 27.5288 30.9753L27.9797 31.1002L27.9728 31.9951C27.9728 32.8067 27.9589 32.9247 27.7924 33.2854C27.5496 33.8057 27.0779 34.2635 26.5854 34.4439C26.2108 34.5896 26.1206 34.5896 17.9279 34.5896C8.62524 34.5896 9.29814 34.6312 8.65992 34.0554C8.46568 33.882 8.22289 33.5767 8.11883 33.3825C7.9454 33.0565 7.93153 32.9524 7.91072 32.0228L7.88297 31.01L8.32694 30.8643C8.5628 30.7811 8.8056 30.7117 8.85416 30.7117C8.9166 30.7048 8.93741 30.9198 8.93741 31.5719Z" fill="black"/>
<path d="M17.6923 2.33142C17.2275 2.52566 17.4217 3.30261 17.942 3.30261C18.1571 3.30261 18.4415 3.00432 18.4415 2.78233C18.4415 2.57422 18.1571 2.26205 17.9767 2.26899C17.9073 2.26899 17.7825 2.29673 17.6923 2.33142Z" fill="black"/>
<path d="M16.8042 13.57C15.1393 14.007 13.8559 15.2834 13.405 16.9553C13.2663 17.4755 13.2663 18.6826 13.405 19.189L13.5091 19.5705L13.2038 20.4516C12.85 21.4713 12.85 21.6447 13.2177 21.9638C13.5091 22.2274 13.6755 22.2274 14.4456 21.9638L15.0491 21.7627L15.4098 21.9916C16.2561 22.5257 17.1926 22.7685 18.2193 22.7061C19.9397 22.609 21.341 21.6586 22.1249 20.0561C23.6095 17.0108 21.3341 13.4173 17.928 13.4381C17.5464 13.4381 17.1025 13.4867 16.8042 13.57ZM18.7882 14.5481C19.3778 14.6799 19.9814 15.0267 20.46 15.5054C21.9307 16.9691 21.9237 19.189 20.4531 20.6458C19.6761 21.4158 18.8229 21.7349 17.706 21.6725C16.9915 21.6309 16.5198 21.4713 15.8677 21.0481C15.3266 20.7013 15.063 20.6597 14.5427 20.847C14.3207 20.9233 14.1403 20.9649 14.1403 20.9371C14.1403 20.9094 14.2374 20.6042 14.3554 20.2642L14.5704 19.6399L14.4456 19.1196C13.953 17.0871 14.9658 15.2349 16.9152 14.6036C17.3453 14.4648 18.2956 14.4371 18.7882 14.5481Z" fill="black"/>
<path d="M16.6022 16.4418C16.4149 16.6291 16.2207 17.2187 16.2207 17.5934C16.2207 18.2316 16.5051 18.6409 17.2821 19.1126C17.9619 19.5219 18.3435 19.6259 18.7874 19.5288C19.8835 19.286 20.5217 17.8847 19.5505 17.857C19.3771 17.85 19.273 17.9125 19.0441 18.1622C18.614 18.627 18.5238 18.6339 17.8995 18.2662C17.2751 17.9055 17.185 17.7529 17.3237 17.2951C17.4971 16.7193 17.4971 16.6222 17.3237 16.4418C17.1225 16.2267 16.8242 16.2198 16.6022 16.4418Z" fill="black"/>
<path d="M27.5015 22.0679C27.113 22.276 27.12 22.2275 27.113 24.7595C27.113 26.244 27.1408 27.1528 27.1824 27.243C27.2726 27.4025 27.6056 27.5829 27.8206 27.5829C27.9108 27.5829 28.6392 27.2083 29.437 26.7435C31.7123 25.4324 31.9482 25.2867 32.0314 25.1063C32.1632 24.8219 32.1216 24.5444 31.9204 24.3294C31.6915 24.0935 28.1605 22.0471 27.89 21.9916C27.7859 21.9777 27.6125 22.0055 27.5015 22.0679ZM29.5271 24.0588C30.2486 24.4751 30.7065 24.7803 30.6648 24.8219C30.5746 24.9121 28.216 26.2648 28.1467 26.2648C28.112 26.2648 28.0842 25.5919 28.0842 24.7664C28.0842 23.3651 28.0912 23.268 28.2022 23.3166C28.2715 23.3374 28.8681 23.6773 29.5271 24.0588Z" fill="black"/>
<path d="M29.0903 7.08362C28.7365 7.20849 28.2578 7.7149 28.1607 8.06175C28.1191 8.20743 28.0844 8.71384 28.0844 9.17863V10.0319H27.578C26.9745 10.0319 26.7664 10.1637 26.7664 10.5522C26.7664 10.9198 27.0161 11.0725 27.6057 11.0725H28.0844V12.7929C28.0844 14.5063 28.0844 14.5202 28.244 14.6659C28.4729 14.8809 28.7989 14.867 28.9793 14.6381C29.118 14.4647 29.125 14.3676 29.125 12.7651V11.0725H29.6106C30.0407 11.0725 30.1239 11.0516 30.2696 10.899C30.4916 10.684 30.4985 10.3857 30.2835 10.1845C30.1517 10.0596 30.0407 10.0319 29.6244 10.0319H29.125V9.17863C29.125 8.37392 29.1319 8.31149 29.2845 8.17275C29.4302 8.03401 29.5204 8.02013 30.2141 8.02013C30.8801 8.02013 31.0049 7.99932 31.1645 7.87445C31.4003 7.68715 31.4142 7.3403 31.1853 7.13218C31.0396 6.99344 30.9494 6.97957 30.1933 6.97957C29.6661 6.9865 29.2706 7.02119 29.0903 7.08362Z" fill="black"/>
<path d="M6.61382 21.6518C6.42651 21.742 6.2184 21.8599 6.1629 21.9085C5.94785 22.0888 5.69118 22.4912 5.601 22.7756C5.55244 22.9421 5.51082 23.0739 5.50388 23.0739C5.49694 23.0739 5.33739 23.0253 5.15009 22.956C4.7408 22.8172 4.38701 22.6022 4.15115 22.3455C3.8251 21.9917 3.40888 21.8738 3.09671 22.0403C2.71517 22.2484 2.50706 23.5387 2.72211 24.3711C2.86778 24.9469 3.03428 25.2591 3.40888 25.6822L3.72105 26.0291L3.38807 26.147C3.00653 26.2858 2.86085 26.5286 2.92328 26.924C3.02734 27.5691 3.57537 27.8674 4.75467 27.916C7.00923 28.0062 8.70882 26.8824 9.33316 24.8775C9.43721 24.5515 9.58983 24.1908 9.67307 24.0798C9.98524 23.6635 10.2142 23.06 10.2211 22.6438C10.2211 22.3039 10.1934 22.2206 10.0199 22.0403C9.74938 21.7558 9.48577 21.7142 9.02792 21.8668C8.72269 21.9709 8.63251 21.9778 8.53539 21.9085C7.91105 21.4575 7.20347 21.3604 6.61382 21.6518ZM7.89718 22.7409C8.16772 22.9421 8.24403 22.9629 8.66719 22.9629L9.13892 22.956L9.02792 23.171C8.96549 23.2889 8.83369 23.4971 8.72963 23.6289C8.63251 23.7607 8.47296 24.1214 8.38971 24.4266C8.30647 24.7319 8.15385 25.1203 8.05673 25.2938C7.46014 26.3135 6.35714 26.8962 5.01828 26.8893L4.46332 26.8824L4.70611 26.7575C5.14315 26.5424 5.25414 26.4453 5.32352 26.2441C5.43451 25.9458 5.29577 25.7377 4.83098 25.488C4.08178 25.0926 3.63087 24.3781 3.67942 23.6705L3.70024 23.3514L4.01934 23.5595C4.47719 23.8647 5.08072 24.052 5.68424 24.0936C6.1629 24.1283 6.23228 24.1145 6.36408 23.9826C6.45426 23.8925 6.50976 23.7468 6.50976 23.608C6.50976 22.6646 7.20347 22.2345 7.89718 22.7409Z" fill="black"/>
<path d="M4.15063 7.22918C3.83153 7.36793 3.54711 7.63847 3.36674 7.98533C3.22106 8.24894 3.21413 8.35993 3.19331 10.5382C3.16557 13.1673 3.20025 13.3824 3.66504 13.8472C4.12982 14.312 4.34487 14.3466 6.97403 14.3189C9.15921 14.2981 9.26327 14.2911 9.53382 14.1455C9.89455 13.9512 10.2275 13.5766 10.3246 13.2436C10.3801 13.0633 10.394 12.1823 10.3801 10.5451L10.3593 8.11713L10.1651 7.82577C10.061 7.66622 9.84599 7.45117 9.68643 7.34711L9.39508 7.15288L6.89772 7.139C4.77497 7.12513 4.35875 7.139 4.15063 7.22918ZM9.22859 8.27668C9.34652 8.38074 9.35345 8.54723 9.35345 10.6977V13.0078L9.17309 13.1465C8.99272 13.2853 8.90948 13.2922 6.86304 13.2922C5.69761 13.2922 4.67092 13.2714 4.58073 13.2506C4.24775 13.1604 4.22 12.98 4.22 10.67C4.22 8.60273 4.22694 8.51948 4.36568 8.33912L4.50443 8.15875H6.8006C8.84011 8.15875 9.11066 8.17263 9.22859 8.27668Z" fill="black"/>
<path d="M6.42571 9.22714C5.9748 9.35201 5.62101 9.64337 5.42677 10.0596C5.12847 10.6909 5.23947 11.2736 5.73894 11.7731C6.52283 12.5639 7.70213 12.335 8.24323 11.2875C8.36116 11.0585 8.35422 10.3926 8.22935 10.1012C7.938 9.41444 7.1541 9.0329 6.42571 9.22714ZM7.0223 10.2469C7.25122 10.3509 7.36915 10.6423 7.27897 10.8851C7.14717 11.225 6.73094 11.3152 6.46039 11.0585C6.20372 10.8157 6.28003 10.3718 6.59914 10.24C6.80725 10.1567 6.82112 10.1567 7.0223 10.2469Z" fill="black"/>
</svg>
