<svg width="31" height="35" viewBox="0 0 31 35" fill="none" xmlns="http://www.w3.org/2000/svg">
<path d="M24.0592 0.7691C23.6479 0.880093 23.1844 1.12166 22.8775 1.38282C22.7273 1.5134 22.1201 2.34911 21.4672 3.32845L20.3116 5.0521H11.2037H2.08927L1.71059 5.2088C0.933643 5.52872 0.424383 6.0445 0.143637 6.78881L0 7.17402V16.0534C0 24.2538 0.00652897 24.9589 0.110992 25.2919C0.339506 26.0297 0.972816 26.6956 1.73018 27.009L2.08927 27.1527L7.4822 27.1722L12.8751 27.1918L12.5291 28.6413C12.3332 29.4378 12.1635 30.156 12.1439 30.2278C12.1112 30.3584 12.0655 30.3714 11.0535 30.3976C9.85221 30.4302 9.60411 30.502 9.10791 30.946C8.7227 31.2986 8.51377 31.736 8.4746 32.3171L8.43543 32.7937L7.26674 32.8133L6.09153 32.8329L5.93483 33.0157C5.71938 33.2638 5.71938 33.6425 5.93483 33.8906L6.09153 34.0734H15.1146H24.1376L24.2943 33.8906C24.5097 33.6425 24.5097 33.2638 24.2943 33.0157L24.1376 32.8329L22.9624 32.8133L21.7937 32.7937L21.7545 32.3171C21.7153 31.736 21.5064 31.2986 21.1212 30.946C20.625 30.502 20.3769 30.4302 19.1756 30.3976C18.1636 30.3714 18.1179 30.3584 18.0852 30.2278C18.0657 30.156 17.8959 29.4378 17.7 28.6413L17.354 27.1918L22.7469 27.1722L28.1399 27.1527L28.5185 27.0025C29.2824 26.6891 29.9484 25.9579 30.1442 25.207C30.2161 24.9328 30.2291 23.2353 30.2291 16.0208V7.17402L30.0855 6.78881C29.6937 5.7507 28.7209 5.0521 27.6632 5.0521C27.1932 5.0521 27.2127 5.11086 27.4478 4.46449C27.722 3.72019 27.5849 2.61027 27.1279 1.95737C26.8863 1.59828 26.4227 1.17389 26.0898 1.01067C25.4826 0.697281 24.6664 0.599346 24.0592 0.7691ZM25.476 2.1663C25.7764 2.32299 26.0571 2.62985 26.1942 2.94324C26.3248 3.25664 26.3052 3.903 26.155 4.19028C26.0375 4.42532 21.7806 9.66155 21.6174 9.77907C21.5652 9.81825 21.2387 9.61585 20.5924 9.13271C20.0766 8.74097 19.6587 8.40799 19.6653 8.3884C19.6718 8.36229 20.5728 7.01079 21.6696 5.37855C23.674 2.38175 23.8177 2.19894 24.2943 2.04877C24.5816 1.95737 25.1822 2.01613 25.476 2.1663ZM17.9285 8.60386L16.4334 10.8433L15.9307 10.889C13.75 11.0849 12.3267 12.5017 12.0459 14.7607C11.9284 15.6617 12.0917 17.307 12.405 18.3516C12.5813 18.9392 13.0384 19.1286 13.4888 18.7956C14.4486 18.097 14.5008 18.0839 16.3224 18.0774C17.6739 18.0643 17.8633 18.0513 18.2485 17.9272C19.6848 17.4441 20.5532 15.962 20.3247 14.3689C20.2855 14.1143 20.2529 13.8205 20.2463 13.7291C20.2398 13.592 20.8796 12.7759 23.1778 9.96189L26.1159 6.35789L27.1017 6.37748C28.0223 6.39054 28.1007 6.4036 28.3161 6.54724C28.6099 6.74963 28.7993 7.03691 28.8842 7.40253C28.9299 7.59187 28.956 9.89007 28.956 13.9119V20.134H18.6728C7.50178 20.134 8.07633 20.1144 7.83476 20.4866C7.69112 20.702 7.74336 21.0807 7.9327 21.2701C8.06981 21.4072 8.07633 21.4072 18.4966 21.4398L28.9233 21.4725V23.17V24.8675L28.7405 25.1744C28.623 25.3768 28.4532 25.5465 28.2508 25.6641L27.944 25.8469H15.1146H2.28514L1.97828 25.6641C1.77588 25.5465 1.60613 25.3768 1.4886 25.1744L1.30579 24.8675V23.17V21.4725L2.39613 21.4398C3.38853 21.4072 3.49953 21.3941 3.62358 21.2701C3.81292 21.0807 3.86515 20.702 3.72151 20.4866C3.53217 20.1993 3.26448 20.134 2.21985 20.134H1.26662L1.28621 13.716C1.30579 6.6517 1.27968 7.15443 1.71059 6.72352C2.08274 6.34484 1.56695 6.36442 10.8577 6.35789H19.4237L17.9285 8.60386ZM19.8546 10.21L20.736 10.8694L20.6185 11.0261C20.1615 11.6268 19.378 12.5539 19.3257 12.5539C19.2931 12.5604 18.9014 12.2927 18.4574 11.9663L17.6543 11.3721L17.7653 11.1959C18.4052 10.2165 18.8687 9.55709 18.9144 9.55709C18.9471 9.55709 19.3714 9.85089 19.8546 10.21ZM17.7196 13.0305C18.823 13.8532 18.8948 13.9119 18.9732 14.1927C19.1886 14.95 18.9993 15.7661 18.49 16.2689C18.0134 16.739 17.8894 16.7651 16.2245 16.7716C14.7163 16.7781 14.2397 16.8434 13.7239 17.1111C13.6194 17.1633 13.5215 17.196 13.5084 17.1764C13.4236 17.098 13.3322 16.2754 13.3256 15.5964C13.3191 14.4016 13.5476 13.6769 14.1287 13.0631C14.6249 12.5343 15.4541 12.1883 16.2375 12.1752C16.5313 12.1687 16.5901 12.2013 17.7196 13.0305ZM16.0286 27.2114C16.0286 27.231 16.1918 27.9231 16.3877 28.7523C16.5836 29.5814 16.7468 30.2866 16.7468 30.3257C16.7468 30.3584 16.0874 30.3845 15.1146 30.3845C14.1417 30.3845 13.4823 30.3584 13.4823 30.3257C13.4823 30.2866 13.6455 29.5814 13.8414 28.7523C14.0373 27.9231 14.2005 27.231 14.2005 27.2114C14.2005 27.1984 14.6118 27.1853 15.1146 27.1853C15.6173 27.1853 16.0286 27.1984 16.0286 27.2114ZM19.9656 31.7621C20.279 31.847 20.4683 32.1343 20.4683 32.5195V32.8002H15.108H9.74775L9.77387 32.4411C9.80651 32.0363 9.93709 31.847 10.244 31.7621C10.5378 31.6772 19.6587 31.6772 19.9656 31.7621Z" fill="black"/>
<path d="M5.53632 20.232C4.88995 20.5127 5.07276 21.4398 5.77136 21.4398C6.39814 21.4398 6.67236 20.6302 6.15657 20.3103C5.915 20.1536 5.7583 20.134 5.53632 20.232Z" fill="black"/>
</svg>
