<svg width="35" height="35" viewBox="0 0 35 35" fill="none" xmlns="http://www.w3.org/2000/svg">
<path d="M30.0843 0.0717487C29.5946 0.172382 29.0512 0.413902 28.662 0.709093C28.4474 0.863398 27.8234 1.45378 27.2666 2.01062L26.2603 3.02366L28.7962 5.55291L31.3255 8.08887L32.3989 7.01545C32.996 6.42506 33.5864 5.7743 33.7272 5.57304C34.6799 4.13733 34.4988 2.29239 33.2777 1.07137C32.4257 0.219345 31.2315 -0.156353 30.0843 0.0717487Z" fill="black"/>
<path d="M19.002 10.2827C14.4064 14.885 13.2793 16.0523 13.2256 16.2402C13.1921 16.3677 12.9438 17.5887 12.6755 18.9573C12.3468 20.6077 12.1992 21.5 12.226 21.6274C12.2864 21.8622 12.4876 22.0635 12.7225 22.1239C12.9774 22.1843 18.0963 21.1645 18.3579 21.0035C18.4585 20.9364 21.0817 18.3468 24.1812 15.2406L29.8167 9.5984L27.3009 7.08257C25.9188 5.70054 24.7716 4.56674 24.7515 4.56674C24.7314 4.56674 22.1484 7.14295 19.002 10.2827Z" fill="black"/>
<path d="M3.50349 5.80789C2.21538 6.0427 1.0212 6.95511 0.437529 8.156C-0.0320931 9.12208 -0.0119665 8.44448 0.0081602 20.2655L0.0282869 30.8991L0.175882 31.3352C0.397276 31.9793 0.779682 32.5831 1.26943 33.0795C1.7726 33.5827 2.26905 33.8913 2.92653 34.1194L3.38273 34.2871H14.2645H25.1464L25.6696 34.1194C27.0181 33.6967 28.0781 32.5696 28.4874 31.1272C28.6014 30.7247 28.6081 30.2886 28.6081 24.4519V18.2059L28.4069 17.8839C28.1117 17.4076 27.6152 17.1526 27.0785 17.1996C26.6089 17.2398 26.2399 17.4612 25.9783 17.8638L25.7904 18.1455L25.7569 24.3177C25.7233 29.9666 25.7166 30.5167 25.6093 30.7046C25.4483 30.9998 25.0658 31.3151 24.7707 31.4023C24.5895 31.456 21.4833 31.4694 14.1438 31.456L3.77184 31.4358L3.5102 31.2547C3.36931 31.1541 3.17475 30.9595 3.08083 30.8186L2.91311 30.5704L2.89298 20.1179C2.87956 9.92715 2.87956 9.65879 3.00703 9.41056C3.08083 9.27638 3.22172 9.08183 3.32906 8.98119C3.75172 8.57195 3.45653 8.59208 9.96415 8.59208C14.4792 8.59208 15.982 8.57195 16.19 8.51157C16.5724 8.39752 16.9883 7.96144 17.0957 7.56562C17.2768 6.92827 17.0085 6.25738 16.4449 5.92865L16.1296 5.7408L10.0581 5.72738C5.28134 5.72067 3.8859 5.73409 3.50349 5.80789Z" fill="black"/>
</svg>
